solid OpenSCAD_Model
  facet normal 1 0 0
    outer loop
      vertex -16.5 -1 2.4
      vertex -16.5 -2.5 1.4
      vertex -16.5 -1 1.4
    endloop
  endfacet
  facet normal 1 0 0
    outer loop
      vertex -16.5 -2.5 1.4
      vertex -16.5 -16.5 1.4
      vertex -16.5 -2.5 0
    endloop
  endfacet
  facet normal 1 0 0
    outer loop
      vertex -16.5 -1 2.4
      vertex -16.5 -16.5 1.4
      vertex -16.5 -2.5 1.4
    endloop
  endfacet
  facet normal 1 -0 0
    outer loop
      vertex -16.5 -18 2.4
      vertex -16.5 -16.5 1.4
      vertex -16.5 -1 2.4
    endloop
  endfacet
  facet normal 1 0 0
    outer loop
      vertex -16.5 -16.5 1.4
      vertex -16.5 -18 2.4
      vertex -16.5 -18 1.4
    endloop
  endfacet
  facet normal 1 0 0
    outer loop
      vertex -16.5 -2.5 0
      vertex -16.5 -16.5 1.4
      vertex -16.5 -16.5 0
    endloop
  endfacet
  facet normal -1 0 0
    outer loop
      vertex -2.5 -2.5 0
      vertex -2.5 -16.5 0
      vertex -2.5 -2.5 1.4
    endloop
  endfacet
  facet normal -1 0 0
    outer loop
      vertex -2.5 -2.5 1.4
      vertex -2.5 -1 2.4
      vertex -2.5 -1 1.4
    endloop
  endfacet
  facet normal -1 0 0
    outer loop
      vertex -2.5 -16.5 1.4
      vertex -2.5 -2.5 1.4
      vertex -2.5 -16.5 0
    endloop
  endfacet
  facet normal -1 0 0
    outer loop
      vertex -2.5 -2.5 1.4
      vertex -2.5 -16.5 1.4
      vertex -2.5 -1 2.4
    endloop
  endfacet
  facet normal -1 0 0
    outer loop
      vertex -2.5 -18 2.4
      vertex -2.5 -16.5 1.4
      vertex -2.5 -18 1.4
    endloop
  endfacet
  facet normal -1 0 0
    outer loop
      vertex -2.5 -16.5 1.4
      vertex -2.5 -18 2.4
      vertex -2.5 -1 2.4
    endloop
  endfacet
  facet normal 0 1 -0
    outer loop
      vertex -2.5 -16.5 0
      vertex -16.5 -16.5 1.4
      vertex -2.5 -16.5 1.4
    endloop
  endfacet
  facet normal 0 1 0
    outer loop
      vertex -16.5 -16.5 1.4
      vertex -2.5 -16.5 0
      vertex -16.5 -16.5 0
    endloop
  endfacet
  facet normal 0 -1 0
    outer loop
      vertex -16.5 -2.5 0
      vertex -2.5 -2.5 1.4
      vertex -16.5 -2.5 1.4
    endloop
  endfacet
  facet normal 0 -1 -0
    outer loop
      vertex -2.5 -2.5 1.4
      vertex -16.5 -2.5 0
      vertex -2.5 -2.5 0
    endloop
  endfacet
  facet normal 0 -1 0
    outer loop
      vertex -16.5 -1 1.4
      vertex -2.5 -1 2.4
      vertex -16.5 -1 2.4
    endloop
  endfacet
  facet normal 0 -1 -0
    outer loop
      vertex -2.5 -1 2.4
      vertex -16.5 -1 1.4
      vertex -2.5 -1 1.4
    endloop
  endfacet
  facet normal -0 0 1
    outer loop
      vertex -16.5 -1 1.4
      vertex -2.5 -2.5 1.4
      vertex -2.5 -1 1.4
    endloop
  endfacet
  facet normal 0 0 1
    outer loop
      vertex -2.5 -2.5 1.4
      vertex -16.5 -1 1.4
      vertex -16.5 -2.5 1.4
    endloop
  endfacet
  facet normal -0 0 1
    outer loop
      vertex -16.5 -16.5 1.4
      vertex -2.5 -18 1.4
      vertex -2.5 -16.5 1.4
    endloop
  endfacet
  facet normal 0 0 1
    outer loop
      vertex -2.5 -18 1.4
      vertex -16.5 -16.5 1.4
      vertex -16.5 -18 1.4
    endloop
  endfacet
  facet normal 0 1 -0
    outer loop
      vertex -2.5 -18 1.4
      vertex -16.5 -18 2.4
      vertex -2.5 -18 2.4
    endloop
  endfacet
  facet normal 0 1 0
    outer loop
      vertex -16.5 -18 2.4
      vertex -2.5 -18 1.4
      vertex -16.5 -18 1.4
    endloop
  endfacet
  facet normal 1 0 0
    outer loop
      vertex -16.5 18 2.4
      vertex -16.5 16.5 1.4
      vertex -16.5 18 1.4
    endloop
  endfacet
  facet normal 1 0 0
    outer loop
      vertex -16.5 16.5 1.4
      vertex -16.5 2.5 1.4
      vertex -16.5 16.5 0
    endloop
  endfacet
  facet normal 1 0 0
    outer loop
      vertex -16.5 18 2.4
      vertex -16.5 2.5 1.4
      vertex -16.5 16.5 1.4
    endloop
  endfacet
  facet normal 1 -0 0
    outer loop
      vertex -16.5 1 2.4
      vertex -16.5 2.5 1.4
      vertex -16.5 18 2.4
    endloop
  endfacet
  facet normal 1 0 0
    outer loop
      vertex -16.5 2.5 1.4
      vertex -16.5 1 2.4
      vertex -16.5 1 1.4
    endloop
  endfacet
  facet normal 1 0 0
    outer loop
      vertex -16.5 16.5 0
      vertex -16.5 2.5 1.4
      vertex -16.5 2.5 0
    endloop
  endfacet
  facet normal -1 0 0
    outer loop
      vertex -2.5 16.5 0
      vertex -2.5 2.5 0
      vertex -2.5 16.5 1.4
    endloop
  endfacet
  facet normal -1 0 0
    outer loop
      vertex -2.5 16.5 1.4
      vertex -2.5 18 2.4
      vertex -2.5 18 1.4
    endloop
  endfacet
  facet normal -1 0 0
    outer loop
      vertex -2.5 2.5 1.4
      vertex -2.5 16.5 1.4
      vertex -2.5 2.5 0
    endloop
  endfacet
  facet normal -1 0 0
    outer loop
      vertex -2.5 16.5 1.4
      vertex -2.5 2.5 1.4
      vertex -2.5 18 2.4
    endloop
  endfacet
  facet normal -1 0 0
    outer loop
      vertex -2.5 1 2.4
      vertex -2.5 2.5 1.4
      vertex -2.5 1 1.4
    endloop
  endfacet
  facet normal -1 0 0
    outer loop
      vertex -2.5 2.5 1.4
      vertex -2.5 1 2.4
      vertex -2.5 18 2.4
    endloop
  endfacet
  facet normal 0 1 -0
    outer loop
      vertex -2.5 2.5 0
      vertex -16.5 2.5 1.4
      vertex -2.5 2.5 1.4
    endloop
  endfacet
  facet normal 0 1 0
    outer loop
      vertex -16.5 2.5 1.4
      vertex -2.5 2.5 0
      vertex -16.5 2.5 0
    endloop
  endfacet
  facet normal 0 -1 0
    outer loop
      vertex -16.5 16.5 0
      vertex -2.5 16.5 1.4
      vertex -16.5 16.5 1.4
    endloop
  endfacet
  facet normal 0 -1 -0
    outer loop
      vertex -2.5 16.5 1.4
      vertex -16.5 16.5 0
      vertex -2.5 16.5 0
    endloop
  endfacet
  facet normal 0 -1 0
    outer loop
      vertex -16.5 18 1.4
      vertex -2.5 18 2.4
      vertex -16.5 18 2.4
    endloop
  endfacet
  facet normal 0 -1 -0
    outer loop
      vertex -2.5 18 2.4
      vertex -16.5 18 1.4
      vertex -2.5 18 1.4
    endloop
  endfacet
  facet normal -0 0 1
    outer loop
      vertex -16.5 18 1.4
      vertex -2.5 16.5 1.4
      vertex -2.5 18 1.4
    endloop
  endfacet
  facet normal 0 0 1
    outer loop
      vertex -2.5 16.5 1.4
      vertex -16.5 18 1.4
      vertex -16.5 16.5 1.4
    endloop
  endfacet
  facet normal -0 0 1
    outer loop
      vertex -16.5 2.5 1.4
      vertex -2.5 1 1.4
      vertex -2.5 2.5 1.4
    endloop
  endfacet
  facet normal 0 0 1
    outer loop
      vertex -2.5 1 1.4
      vertex -16.5 2.5 1.4
      vertex -16.5 1 1.4
    endloop
  endfacet
  facet normal 0 1 -0
    outer loop
      vertex -2.5 1 1.4
      vertex -16.5 1 2.4
      vertex -2.5 1 2.4
    endloop
  endfacet
  facet normal 0 1 0
    outer loop
      vertex -16.5 1 2.4
      vertex -2.5 1 1.4
      vertex -16.5 1 1.4
    endloop
  endfacet
  facet normal 1 0 0
    outer loop
      vertex 2.5 18 2.4
      vertex 2.5 16.5 1.4
      vertex 2.5 18 1.4
    endloop
  endfacet
  facet normal 1 0 0
    outer loop
      vertex 2.5 16.5 1.4
      vertex 2.5 2.5 1.4
      vertex 2.5 16.5 0
    endloop
  endfacet
  facet normal 1 0 0
    outer loop
      vertex 2.5 18 2.4
      vertex 2.5 2.5 1.4
      vertex 2.5 16.5 1.4
    endloop
  endfacet
  facet normal 1 -0 0
    outer loop
      vertex 2.5 1 2.4
      vertex 2.5 2.5 1.4
      vertex 2.5 18 2.4
    endloop
  endfacet
  facet normal 1 0 0
    outer loop
      vertex 2.5 2.5 1.4
      vertex 2.5 1 2.4
      vertex 2.5 1 1.4
    endloop
  endfacet
  facet normal 1 0 0
    outer loop
      vertex 2.5 16.5 0
      vertex 2.5 2.5 1.4
      vertex 2.5 2.5 0
    endloop
  endfacet
  facet normal -1 0 0
    outer loop
      vertex 16.5 16.5 0
      vertex 16.5 2.5 0
      vertex 16.5 16.5 1.4
    endloop
  endfacet
  facet normal -1 0 0
    outer loop
      vertex 16.5 16.5 1.4
      vertex 16.5 18 2.4
      vertex 16.5 18 1.4
    endloop
  endfacet
  facet normal -1 0 0
    outer loop
      vertex 16.5 2.5 1.4
      vertex 16.5 16.5 1.4
      vertex 16.5 2.5 0
    endloop
  endfacet
  facet normal -1 0 0
    outer loop
      vertex 16.5 16.5 1.4
      vertex 16.5 2.5 1.4
      vertex 16.5 18 2.4
    endloop
  endfacet
  facet normal -1 0 0
    outer loop
      vertex 16.5 1 2.4
      vertex 16.5 2.5 1.4
      vertex 16.5 1 1.4
    endloop
  endfacet
  facet normal -1 0 0
    outer loop
      vertex 16.5 2.5 1.4
      vertex 16.5 1 2.4
      vertex 16.5 18 2.4
    endloop
  endfacet
  facet normal 0 1 -0
    outer loop
      vertex 16.5 2.5 0
      vertex 2.5 2.5 1.4
      vertex 16.5 2.5 1.4
    endloop
  endfacet
  facet normal 0 1 0
    outer loop
      vertex 2.5 2.5 1.4
      vertex 16.5 2.5 0
      vertex 2.5 2.5 0
    endloop
  endfacet
  facet normal 0 -1 0
    outer loop
      vertex 2.5 16.5 0
      vertex 16.5 16.5 1.4
      vertex 2.5 16.5 1.4
    endloop
  endfacet
  facet normal 0 -1 -0
    outer loop
      vertex 16.5 16.5 1.4
      vertex 2.5 16.5 0
      vertex 16.5 16.5 0
    endloop
  endfacet
  facet normal 0 -1 0
    outer loop
      vertex 2.5 18 1.4
      vertex 16.5 18 2.4
      vertex 2.5 18 2.4
    endloop
  endfacet
  facet normal 0 -1 -0
    outer loop
      vertex 16.5 18 2.4
      vertex 2.5 18 1.4
      vertex 16.5 18 1.4
    endloop
  endfacet
  facet normal -0 0 1
    outer loop
      vertex 2.5 18 1.4
      vertex 16.5 16.5 1.4
      vertex 16.5 18 1.4
    endloop
  endfacet
  facet normal 0 0 1
    outer loop
      vertex 16.5 16.5 1.4
      vertex 2.5 18 1.4
      vertex 2.5 16.5 1.4
    endloop
  endfacet
  facet normal -0 0 1
    outer loop
      vertex 2.5 2.5 1.4
      vertex 16.5 1 1.4
      vertex 16.5 2.5 1.4
    endloop
  endfacet
  facet normal 0 0 1
    outer loop
      vertex 16.5 1 1.4
      vertex 2.5 2.5 1.4
      vertex 2.5 1 1.4
    endloop
  endfacet
  facet normal 0 1 -0
    outer loop
      vertex 16.5 1 1.4
      vertex 2.5 1 2.4
      vertex 16.5 1 2.4
    endloop
  endfacet
  facet normal 0 1 0
    outer loop
      vertex 2.5 1 2.4
      vertex 16.5 1 1.4
      vertex 2.5 1 1.4
    endloop
  endfacet
  facet normal 1 0 0
    outer loop
      vertex 2.5 -1 2.4
      vertex 2.5 -2.5 1.4
      vertex 2.5 -1 1.4
    endloop
  endfacet
  facet normal 1 0 0
    outer loop
      vertex 2.5 -2.5 1.4
      vertex 2.5 -16.5 1.4
      vertex 2.5 -2.5 0
    endloop
  endfacet
  facet normal 1 0 0
    outer loop
      vertex 2.5 -1 2.4
      vertex 2.5 -16.5 1.4
      vertex 2.5 -2.5 1.4
    endloop
  endfacet
  facet normal 1 -0 0
    outer loop
      vertex 2.5 -18 2.4
      vertex 2.5 -16.5 1.4
      vertex 2.5 -1 2.4
    endloop
  endfacet
  facet normal 1 0 0
    outer loop
      vertex 2.5 -16.5 1.4
      vertex 2.5 -18 2.4
      vertex 2.5 -18 1.4
    endloop
  endfacet
  facet normal 1 0 0
    outer loop
      vertex 2.5 -2.5 0
      vertex 2.5 -16.5 1.4
      vertex 2.5 -16.5 0
    endloop
  endfacet
  facet normal -1 0 0
    outer loop
      vertex 16.5 -2.5 0
      vertex 16.5 -16.5 0
      vertex 16.5 -2.5 1.4
    endloop
  endfacet
  facet normal -1 0 0
    outer loop
      vertex 16.5 -2.5 1.4
      vertex 16.5 -1 2.4
      vertex 16.5 -1 1.4
    endloop
  endfacet
  facet normal -1 0 0
    outer loop
      vertex 16.5 -16.5 1.4
      vertex 16.5 -2.5 1.4
      vertex 16.5 -16.5 0
    endloop
  endfacet
  facet normal -1 0 0
    outer loop
      vertex 16.5 -2.5 1.4
      vertex 16.5 -16.5 1.4
      vertex 16.5 -1 2.4
    endloop
  endfacet
  facet normal -1 0 0
    outer loop
      vertex 16.5 -18 2.4
      vertex 16.5 -16.5 1.4
      vertex 16.5 -18 1.4
    endloop
  endfacet
  facet normal -1 0 0
    outer loop
      vertex 16.5 -16.5 1.4
      vertex 16.5 -18 2.4
      vertex 16.5 -1 2.4
    endloop
  endfacet
  facet normal 0 1 -0
    outer loop
      vertex 16.5 -16.5 0
      vertex 2.5 -16.5 1.4
      vertex 16.5 -16.5 1.4
    endloop
  endfacet
  facet normal 0 1 0
    outer loop
      vertex 2.5 -16.5 1.4
      vertex 16.5 -16.5 0
      vertex 2.5 -16.5 0
    endloop
  endfacet
  facet normal 0 -1 0
    outer loop
      vertex 2.5 -2.5 0
      vertex 16.5 -2.5 1.4
      vertex 2.5 -2.5 1.4
    endloop
  endfacet
  facet normal 0 -1 -0
    outer loop
      vertex 16.5 -2.5 1.4
      vertex 2.5 -2.5 0
      vertex 16.5 -2.5 0
    endloop
  endfacet
  facet normal 0 -1 0
    outer loop
      vertex 2.5 -1 1.4
      vertex 16.5 -1 2.4
      vertex 2.5 -1 2.4
    endloop
  endfacet
  facet normal 0 -1 -0
    outer loop
      vertex 16.5 -1 2.4
      vertex 2.5 -1 1.4
      vertex 16.5 -1 1.4
    endloop
  endfacet
  facet normal -0 0 1
    outer loop
      vertex 2.5 -1 1.4
      vertex 16.5 -2.5 1.4
      vertex 16.5 -1 1.4
    endloop
  endfacet
  facet normal 0 0 1
    outer loop
      vertex 16.5 -2.5 1.4
      vertex 2.5 -1 1.4
      vertex 2.5 -2.5 1.4
    endloop
  endfacet
  facet normal -0 0 1
    outer loop
      vertex 2.5 -16.5 1.4
      vertex 16.5 -18 1.4
      vertex 16.5 -16.5 1.4
    endloop
  endfacet
  facet normal 0 0 1
    outer loop
      vertex 16.5 -18 1.4
      vertex 2.5 -16.5 1.4
      vertex 2.5 -18 1.4
    endloop
  endfacet
  facet normal 0 1 -0
    outer loop
      vertex 16.5 -18 1.4
      vertex 2.5 -18 2.4
      vertex 16.5 -18 2.4
    endloop
  endfacet
  facet normal 0 1 0
    outer loop
      vertex 2.5 -18 2.4
      vertex 16.5 -18 1.4
      vertex 2.5 -18 1.4
    endloop
  endfacet
  facet normal -1 0 0
    outer loop
      vertex -19 -19 0
      vertex -19 19 2.4
      vertex -19 19 0
    endloop
  endfacet
  facet normal -1 -0 0
    outer loop
      vertex -19 19 2.4
      vertex -19 -19 0
      vertex -19 -19 2.4
    endloop
  endfacet
  facet normal -0 0 1
    outer loop
      vertex -16.5 1 2.4
      vertex -2.5 -1 2.4
      vertex -2.5 1 2.4
    endloop
  endfacet
  facet normal 0 0 1
    outer loop
      vertex -2.5 -1 2.4
      vertex -16.5 1 2.4
      vertex -16.5 -1 2.4
    endloop
  endfacet
  facet normal -0 0 1
    outer loop
      vertex 2.5 1 2.4
      vertex 16.5 -1 2.4
      vertex 16.5 1 2.4
    endloop
  endfacet
  facet normal 0 0 1
    outer loop
      vertex 16.5 -1 2.4
      vertex 2.5 1 2.4
      vertex 2.5 -1 2.4
    endloop
  endfacet
  facet normal 0 0 1
    outer loop
      vertex 16.5 1 2.4
      vertex 19 19 2.4
      vertex 16.5 18 2.4
    endloop
  endfacet
  facet normal 0 0 1
    outer loop
      vertex 19 19 2.4
      vertex 2.5 18 2.4
      vertex 16.5 18 2.4
    endloop
  endfacet
  facet normal 0 0 1
    outer loop
      vertex -2.5 1 2.4
      vertex 2.5 1 2.4
      vertex 2.5 18 2.4
    endloop
  endfacet
  facet normal 0 0 1
    outer loop
      vertex 2.5 1 2.4
      vertex -2.5 1 2.4
      vertex 2.5 -1 2.4
    endloop
  endfacet
  facet normal 0 0 1
    outer loop
      vertex -2.5 1 2.4
      vertex 2.5 18 2.4
      vertex -2.5 18 2.4
    endloop
  endfacet
  facet normal 0 0 1
    outer loop
      vertex 19 19 2.4
      vertex -2.5 18 2.4
      vertex 2.5 18 2.4
    endloop
  endfacet
  facet normal -0 0 1
    outer loop
      vertex -19 19 2.4
      vertex -2.5 18 2.4
      vertex 19 19 2.4
    endloop
  endfacet
  facet normal 0 0 1
    outer loop
      vertex -19 19 2.4
      vertex -16.5 1 2.4
      vertex -16.5 18 2.4
    endloop
  endfacet
  facet normal 0 0 1
    outer loop
      vertex -16.5 1 2.4
      vertex -19 19 2.4
      vertex -16.5 -1 2.4
    endloop
  endfacet
  facet normal 0 0 1
    outer loop
      vertex -19 -19 2.4
      vertex -16.5 -1 2.4
      vertex -19 19 2.4
    endloop
  endfacet
  facet normal 0 0 1
    outer loop
      vertex -2.5 18 2.4
      vertex -19 19 2.4
      vertex -16.5 18 2.4
    endloop
  endfacet
  facet normal 0 0 1
    outer loop
      vertex 19 19 2.4
      vertex 16.5 1 2.4
      vertex 19 -19 2.4
    endloop
  endfacet
  facet normal -0 0 1
    outer loop
      vertex 16.5 -1 2.4
      vertex 19 -19 2.4
      vertex 16.5 1 2.4
    endloop
  endfacet
  facet normal -0 0 1
    outer loop
      vertex 16.5 -18 2.4
      vertex 19 -19 2.4
      vertex 16.5 -1 2.4
    endloop
  endfacet
  facet normal -0 0 1
    outer loop
      vertex 2.5 -18 2.4
      vertex 19 -19 2.4
      vertex 16.5 -18 2.4
    endloop
  endfacet
  facet normal 0 0 1
    outer loop
      vertex -2.5 -1 2.4
      vertex 2.5 -1 2.4
      vertex -2.5 1 2.4
    endloop
  endfacet
  facet normal 0 0 1
    outer loop
      vertex 2.5 -1 2.4
      vertex -2.5 -1 2.4
      vertex 2.5 -18 2.4
    endloop
  endfacet
  facet normal 0 0 1
    outer loop
      vertex -2.5 -18 2.4
      vertex 2.5 -18 2.4
      vertex -2.5 -1 2.4
    endloop
  endfacet
  facet normal -0 0 1
    outer loop
      vertex -2.5 -18 2.4
      vertex 19 -19 2.4
      vertex 2.5 -18 2.4
    endloop
  endfacet
  facet normal 0 0 1
    outer loop
      vertex -19 -19 2.4
      vertex -2.5 -18 2.4
      vertex -16.5 -18 2.4
    endloop
  endfacet
  facet normal 0 0 1
    outer loop
      vertex -2.5 -18 2.4
      vertex -19 -19 2.4
      vertex 19 -19 2.4
    endloop
  endfacet
  facet normal 0 0 1
    outer loop
      vertex -16.5 -1 2.4
      vertex -19 -19 2.4
      vertex -16.5 -18 2.4
    endloop
  endfacet
  facet normal 1 -0 0
    outer loop
      vertex 19 -19 2.4
      vertex 19 19 0
      vertex 19 19 2.4
    endloop
  endfacet
  facet normal 1 0 0
    outer loop
      vertex 19 19 0
      vertex 19 -19 2.4
      vertex 19 -19 0
    endloop
  endfacet
  facet normal 0 1 -0
    outer loop
      vertex 19 19 0
      vertex -19 19 2.4
      vertex 19 19 2.4
    endloop
  endfacet
  facet normal 0 1 0
    outer loop
      vertex -19 19 2.4
      vertex 19 19 0
      vertex -19 19 0
    endloop
  endfacet
  facet normal 0 0 -1
    outer loop
      vertex -16.5 -2.5 0
      vertex -2.5 2.5 0
      vertex -2.5 -2.5 0
    endloop
  endfacet
  facet normal -0 0 -1
    outer loop
      vertex -2.5 2.5 0
      vertex -16.5 -2.5 0
      vertex -16.5 2.5 0
    endloop
  endfacet
  facet normal 0 0 -1
    outer loop
      vertex 2.5 -2.5 0
      vertex 16.5 2.5 0
      vertex 16.5 -2.5 0
    endloop
  endfacet
  facet normal -0 0 -1
    outer loop
      vertex 16.5 2.5 0
      vertex 2.5 -2.5 0
      vertex 2.5 2.5 0
    endloop
  endfacet
  facet normal 0 0 -1
    outer loop
      vertex 16.5 -2.5 0
      vertex 19 -19 0
      vertex 16.5 -16.5 0
    endloop
  endfacet
  facet normal 0 0 -1
    outer loop
      vertex 19 -19 0
      vertex 2.5 -16.5 0
      vertex 16.5 -16.5 0
    endloop
  endfacet
  facet normal 0 0 -1
    outer loop
      vertex -2.5 -2.5 0
      vertex 2.5 -2.5 0
      vertex 2.5 -16.5 0
    endloop
  endfacet
  facet normal 0 0 -1
    outer loop
      vertex 2.5 -2.5 0
      vertex -2.5 -2.5 0
      vertex 2.5 2.5 0
    endloop
  endfacet
  facet normal 0 0 -1
    outer loop
      vertex -2.5 -2.5 0
      vertex 2.5 -16.5 0
      vertex -2.5 -16.5 0
    endloop
  endfacet
  facet normal 0 0 -1
    outer loop
      vertex 19 -19 0
      vertex -2.5 -16.5 0
      vertex 2.5 -16.5 0
    endloop
  endfacet
  facet normal 0 0 -1
    outer loop
      vertex -19 -19 0
      vertex -2.5 -16.5 0
      vertex 19 -19 0
    endloop
  endfacet
  facet normal 0 0 -1
    outer loop
      vertex -19 -19 0
      vertex -16.5 -2.5 0
      vertex -16.5 -16.5 0
    endloop
  endfacet
  facet normal -0 0 -1
    outer loop
      vertex -16.5 -2.5 0
      vertex -19 -19 0
      vertex -16.5 2.5 0
    endloop
  endfacet
  facet normal 0 0 -1
    outer loop
      vertex -19 19 0
      vertex -16.5 2.5 0
      vertex -19 -19 0
    endloop
  endfacet
  facet normal -0 0 -1
    outer loop
      vertex -2.5 -16.5 0
      vertex -19 -19 0
      vertex -16.5 -16.5 0
    endloop
  endfacet
  facet normal 0 0 -1
    outer loop
      vertex 19 -19 0
      vertex 16.5 -2.5 0
      vertex 19 19 0
    endloop
  endfacet
  facet normal 0 0 -1
    outer loop
      vertex 16.5 2.5 0
      vertex 19 19 0
      vertex 16.5 -2.5 0
    endloop
  endfacet
  facet normal 0 0 -1
    outer loop
      vertex 16.5 16.5 0
      vertex 19 19 0
      vertex 16.5 2.5 0
    endloop
  endfacet
  facet normal 0 0 -1
    outer loop
      vertex 2.5 16.5 0
      vertex 19 19 0
      vertex 16.5 16.5 0
    endloop
  endfacet
  facet normal 0 0 -1
    outer loop
      vertex -2.5 2.5 0
      vertex 2.5 2.5 0
      vertex -2.5 -2.5 0
    endloop
  endfacet
  facet normal 0 0 -1
    outer loop
      vertex 2.5 2.5 0
      vertex -2.5 2.5 0
      vertex 2.5 16.5 0
    endloop
  endfacet
  facet normal 0 0 -1
    outer loop
      vertex -2.5 16.5 0
      vertex 2.5 16.5 0
      vertex -2.5 2.5 0
    endloop
  endfacet
  facet normal 0 0 -1
    outer loop
      vertex -2.5 16.5 0
      vertex 19 19 0
      vertex 2.5 16.5 0
    endloop
  endfacet
  facet normal 0 0 -1
    outer loop
      vertex -19 19 0
      vertex -2.5 16.5 0
      vertex -16.5 16.5 0
    endloop
  endfacet
  facet normal 0 0 -1
    outer loop
      vertex -2.5 16.5 0
      vertex -19 19 0
      vertex 19 19 0
    endloop
  endfacet
  facet normal 0 0 -1
    outer loop
      vertex -16.5 2.5 0
      vertex -19 19 0
      vertex -16.5 16.5 0
    endloop
  endfacet
  facet normal 0 -1 0
    outer loop
      vertex -19 -19 0
      vertex 19 -19 2.4
      vertex -19 -19 2.4
    endloop
  endfacet
  facet normal 0 -1 -0
    outer loop
      vertex 19 -19 2.4
      vertex -19 -19 0
      vertex 19 -19 0
    endloop
  endfacet
endsolid OpenSCAD_Model
